<svg id="visual" viewBox="0 0 675 900" width="675" height="900" xmlns="http://www.w3.org/2000/svg" xmlns:xlink="http://www.w3.org/1999/xlink" version="1.1"><path d="M0 749L16 747C32 745 64 741 96.2 721.8C128.3 702.7 160.7 668.3 192.8 675.3C225 682.3 257 730.7 289.2 752.8C321.3 775 353.7 771 385.8 755.2C418 739.3 450 711.7 482.2 714C514.3 716.3 546.7 748.7 578.8 747.2C611 745.7 643 710.3 659 692.7L675 675L675 901L659 901C643 901 611 901 578.8 901C546.7 901 514.3 901 482.2 901C450 901 418 901 385.8 901C353.7 901 321.3 901 289.2 901C257 901 225 901 192.8 901C160.7 901 128.3 901 96.2 901C64 901 32 901 16 901L0 901Z" fill="#81B29A" stroke-linecap="round" stroke-linejoin="miter"></path></svg>